<?xml version="1.0" encoding="UTF-8" standalone="no"?><!DOCTYPE svg PUBLIC "-//W3C//DTD SVG 1.1//EN" "http://www.w3.org/Graphics/SVG/1.1/DTD/svg11.dtd"><svg width="100%" height="100%" viewBox="0 0 426 198" version="1.1" xmlns="http://www.w3.org/2000/svg" xmlns:xlink="http://www.w3.org/1999/xlink" xml:space="preserve" xmlns:serif="http://www.serif.com/" style="fill-rule:evenodd;clip-rule:evenodd;stroke-linecap:round;stroke-linejoin:round;stroke-miterlimit:2;"><g><rect x="3.626" y="107.282" width="133.01" height="88.463" style="fill:#fff;fill-rule:nonzero;"/><rect x="3.626" y="107.282" width="133.01" height="88.463" style="fill:none;stroke:#7fb4c8;stroke-width:3px;"/><path d="M246.802,106.687c0,-0 26.024,-74.89 62.167,-74.312c36.144,0.578 64.481,104.673 64.481,104.673l-11.277,0.289c0,0 -29.782,-97.444 -54.36,-97.444c-24.578,0 -47.999,66.794 -47.999,66.794l-13.012,-0Z" style="fill:#7fb4c8;fill-rule:nonzero;"/><path d="M246.802,106.687c0,-0 26.024,-74.89 62.168,-74.312c36.143,0.578 64.48,104.673 64.48,104.673l-11.277,0.289c0,0 -29.782,-97.444 -54.36,-97.444c-24.578,0 -47.999,66.794 -47.999,66.794l-13.012,-0Z" style="fill:none;stroke:#7fb4c8;stroke-width:1.5px;"/><path d="M288.729,4.906c0,0 24.867,-5.494 29.783,4.337c4.915,9.831 -12.145,26.313 -12.145,26.313c0,-0 4.048,-15.325 1.157,-21.687c-2.892,-6.361 -18.795,-8.963 -18.795,-8.963Z" style="fill:none;stroke:#7fb4c8;stroke-width:6px;"/><path d="M150.515,106.687c-0,-0 26.023,-74.89 62.167,-74.312c36.144,0.578 64.481,104.673 64.481,104.673l-11.277,0.289c-0,0 -29.783,-97.444 -54.36,-97.444c-24.578,0 -47.999,66.794 -47.999,66.794l-13.012,-0Z" style="fill:#7fb4c8;fill-rule:nonzero;"/><path d="M150.515,106.687c-0,-0 26.024,-74.89 62.167,-74.312c36.144,0.578 64.481,104.673 64.481,104.673l-11.277,0.289c-0,0 -29.783,-97.444 -54.36,-97.444c-24.578,0 -47.999,66.794 -47.999,66.794l-13.012,-0Z" style="fill:none;stroke:#7fb4c8;stroke-width:1.5px;"/><path d="M192.442,4.906c0,0 24.867,-5.494 29.782,4.337c4.916,9.831 -12.144,26.313 -12.144,26.313c0,-0 4.048,-15.325 1.157,-21.687c-2.892,-6.361 -18.795,-8.963 -18.795,-8.963Z" style="fill:none;stroke:#7fb4c8;stroke-width:6px;"/><path d="M54.228,106.687c0,-0 26.023,-74.89 62.167,-74.312c36.144,0.578 64.481,104.673 64.481,104.673l-11.277,0.289c-0,0 -29.783,-97.444 -54.361,-97.444c-24.577,0 -47.999,66.794 -47.999,66.794l-13.011,-0Z" style="fill:#7fb4c8;fill-rule:nonzero;"/><path d="M54.228,106.687c0,-0 26.023,-74.89 62.167,-74.312c36.144,0.578 64.481,104.673 64.481,104.673l-11.277,0.289c-0,0 -29.783,-97.444 -54.361,-97.444c-24.577,0 -47.998,66.794 -47.998,66.794l-13.012,-0Z" style="fill:none;stroke:#7fb4c8;stroke-width:1.5px;"/><path d="M96.154,4.906c-0,0 24.867,-5.494 29.783,4.337c4.916,9.831 -12.144,26.313 -12.144,26.313c-0,-0 4.048,-15.325 1.156,-21.687c-2.891,-6.361 -18.795,-8.963 -18.795,-8.963Z" style="fill:none;stroke:#7fb4c8;stroke-width:6px;"/><rect x="289.596" y="107.282" width="133.01" height="88.463" style="fill:#fff;fill-rule:nonzero;"/><rect x="289.596" y="107.282" width="133.01" height="88.463" style="fill:none;stroke:#7fb4c8;stroke-width:3px;"/><path d="M376.03,131.585c11.006,11.006 11.006,28.851 -0,39.858c-11.007,11.006 -28.851,11.006 -39.858,0c-11.006,-11.007 -11.006,-28.852 -0,-39.858c11.007,-11.007 28.851,-11.007 39.858,-0Z" style="fill:#e43e3b;fill-rule:nonzero;"/><rect x="3.375" y="150.638" width="133.009" height="45.107" style="fill:#7fb4c8;fill-rule:nonzero;"/></g></svg>