<?xml version="1.0" encoding="UTF-8" standalone="no"?><!DOCTYPE svg PUBLIC "-//W3C//DTD SVG 1.1//EN" "http://www.w3.org/Graphics/SVG/1.1/DTD/svg11.dtd"><svg width="100%" height="100%" viewBox="0 0 483 222" version="1.1" xmlns="http://www.w3.org/2000/svg" xmlns:xlink="http://www.w3.org/1999/xlink" xml:space="preserve" xmlns:serif="http://www.serif.com/" style="fill-rule:evenodd;clip-rule:evenodd;stroke-linecap:round;stroke-linejoin:round;stroke-miterlimit:2;"><g><path d="M278.999,118.567c-0,0 29.772,-85.676 71.122,-85.015c41.35,0.662 73.768,119.749 73.768,119.749l-12.901,0.331c0,0 -34.072,-111.479 -62.19,-111.479c-28.118,-0 -54.913,76.414 -54.913,76.414l-14.886,0Z" style="fill:#7fb4c8;fill-rule:nonzero;"/><path d="M326.965,2.126c-0,0 28.449,-6.285 34.072,4.962c5.624,11.247 -13.893,30.103 -13.893,30.103c0,-0 4.631,-17.532 1.323,-24.81c-3.308,-7.278 -21.502,-10.255 -21.502,-10.255Z" style="fill:#7fb4c8;fill-rule:nonzero;"/><path d="M168.843,118.567c0,0 29.772,-85.676 71.122,-85.015c41.35,0.662 73.768,119.749 73.768,119.749l-12.901,0.331c0,0 -34.072,-111.479 -62.19,-111.479c-28.118,-0 -54.913,76.414 -54.913,76.414l-14.886,0Z" style="fill:#7fb4c8;fill-rule:nonzero;"/><path d="M216.809,2.126c0,0 28.449,-6.285 34.072,4.962c5.624,11.247 -13.893,30.103 -13.893,30.103c0,-0 4.631,-17.532 1.323,-24.81c-3.308,-7.278 -21.502,-10.255 -21.502,-10.255Z" style="fill:#7fb4c8;fill-rule:nonzero;"/><path d="M58.687,118.567c0,0 29.772,-85.676 71.122,-85.015c41.35,0.662 73.768,119.749 73.768,119.749l-12.901,0.331c-0,0 -34.072,-111.479 -62.19,-111.479c-28.118,-0 -54.913,76.414 -54.913,76.414l-14.886,0Z" style="fill:#7fb4c8;fill-rule:nonzero;"/><path d="M106.653,2.126c-0,0 28.449,-6.285 34.072,4.962c5.624,11.247 -13.893,30.103 -13.893,30.103c0,-0 4.631,-17.532 1.323,-24.81c-3.308,-7.278 -21.502,-10.255 -21.502,-10.255Z" style="fill:#7fb4c8;fill-rule:nonzero;"/><rect x="327.958" y="119.249" width="152.167" height="101.205" style="fill:#fff;fill-rule:nonzero;"/><rect x="327.958" y="119.249" width="152.167" height="101.204" style="fill:none;stroke:#000;stroke-width:1.5px;"/><path d="M426.841,147.052c12.591,12.591 12.591,33.007 0,45.598c-12.592,12.592 -33.007,12.592 -45.599,-0c-12.592,-12.591 -12.592,-33.007 0,-45.598c12.592,-12.592 33.007,-12.592 45.599,0Z" style="fill:#e43e3b;fill-rule:nonzero;"/><rect x="0.509" y="168.849" width="152.168" height="51.605" style="fill:#7fb4c8;fill-rule:nonzero;"/><rect x="0.509" y="119.249" width="152.168" height="51.604" style="fill:#fff;fill-rule:nonzero;"/><rect x="0.798" y="119.249" width="152.167" height="101.204" style="fill:none;stroke:#000;stroke-width:1.5px;"/></g></svg>