<?xml version="1.0" encoding="UTF-8" standalone="no"?><!DOCTYPE svg PUBLIC "-//W3C//DTD SVG 1.1//EN" "http://www.w3.org/Graphics/SVG/1.1/DTD/svg11.dtd"><svg width="100%" height="100%" viewBox="0 0 648 156" version="1.1" xmlns="http://www.w3.org/2000/svg" xmlns:xlink="http://www.w3.org/1999/xlink" xml:space="preserve" xmlns:serif="http://www.serif.com/" style="fill-rule:evenodd;clip-rule:evenodd;stroke-linecap:round;stroke-linejoin:round;stroke-miterlimit:2;"><g><path d="M333.726,34.872c-0.648,-1.512 -1.17,-2.961 -1.566,-4.347c-0.396,-1.386 -0.702,-2.961 -0.918,-4.725c-1.152,-0.36 -2.313,-0.585 -3.483,-0.675c-1.17,-0.09 -2.619,-0.099 -4.347,-0.027c-1.584,1.98 -2.952,3.609 -4.104,4.887c-1.152,1.278 -2.142,2.286 -2.97,3.024c-0.828,0.738 -1.503,1.251 -2.025,1.539c-0.522,0.288 -0.927,0.432 -1.215,0.432c-1.152,0 -1.728,-1.062 -1.728,-3.186c-0,-0.684 0.081,-1.296 0.243,-1.836c0.162,-0.54 0.504,-1.062 1.026,-1.566c0.522,-0.504 1.242,-1.035 2.16,-1.593c0.918,-0.558 2.133,-1.197 3.645,-1.917c0.72,-0.36 1.278,-0.684 1.674,-0.972c0.396,-0.288 0.792,-0.63 1.188,-1.026c1.188,-1.188 2.286,-2.394 3.294,-3.618c1.008,-1.224 1.89,-2.421 2.646,-3.591c0.756,-1.17 1.359,-2.277 1.809,-3.321c0.45,-1.044 0.711,-1.998 0.783,-2.862c1.26,-0.216 2.43,-0.45 3.51,-0.702c1.08,-0.252 2.268,-0.576 3.564,-0.972c-0.288,1.296 -0.513,2.727 -0.675,4.293c-0.162,1.566 -0.243,3.033 -0.243,4.401c-0,2.16 0.063,4.059 0.189,5.697c0.126,1.638 0.324,3.123 0.594,4.455c0.27,1.332 0.612,2.556 1.026,3.672c0.414,1.116 0.909,2.214 1.485,3.294l-5.562,1.242Zm-2.268,-22.464c-0.828,1.836 -1.773,3.645 -2.835,5.427c-1.062,1.782 -2.349,3.537 -3.861,5.265c1.044,-0.144 2.034,-0.234 2.97,-0.27c0.936,-0.036 2.034,-0.018 3.294,0.054l0,-2.43c0,-1.044 0.036,-2.331 0.108,-3.861c0.072,-1.53 0.18,-2.925 0.324,-4.185Z" style="fill:#3b3c3d;fill-rule:nonzero;"/><path d="M366.642,21.642c-1.836,-0.936 -3.42,-1.593 -4.752,-1.971c-1.332,-0.378 -2.52,-0.567 -3.564,-0.567c-0.9,0 -1.836,0.648 -2.808,1.944c0.72,0.432 1.476,0.855 2.268,1.269c0.792,0.414 1.764,0.909 2.916,1.485c1.188,0.576 2.133,1.107 2.835,1.593c0.702,0.486 1.206,0.963 1.512,1.431c0.306,0.468 0.441,0.945 0.405,1.431c-0.036,0.486 -0.198,1.017 -0.486,1.593c-0.468,0.972 -0.954,1.782 -1.458,2.43c-0.504,0.648 -1.08,1.161 -1.728,1.539c-0.648,0.378 -1.377,0.639 -2.187,0.783c-0.81,0.144 -1.755,0.216 -2.835,0.216c-1.512,0 -3.033,-0.198 -4.563,-0.594c-1.53,-0.396 -3.213,-1.044 -5.049,-1.944l2.214,-3.51c1.512,0.756 3.132,1.368 4.86,1.836c1.728,0.468 3.222,0.702 4.482,0.702c0.936,-0 1.566,-0.072 1.89,-0.216c0.324,-0.144 0.594,-0.468 0.81,-0.972c0.072,-0.18 0.099,-0.342 0.081,-0.486c-0.018,-0.144 -0.117,-0.315 -0.297,-0.513c-0.18,-0.198 -0.468,-0.423 -0.864,-0.675c-0.396,-0.252 -0.954,-0.558 -1.674,-0.918c-1.476,-0.684 -2.682,-1.305 -3.618,-1.863c-0.936,-0.558 -1.674,-1.08 -2.214,-1.566c-0.54,-0.486 -0.918,-0.927 -1.134,-1.323c-0.216,-0.396 -0.324,-0.756 -0.324,-1.08c-0,-0.432 0.207,-0.981 0.621,-1.647c0.414,-0.666 0.99,-1.314 1.728,-1.944c0.738,-0.63 1.611,-1.17 2.619,-1.62c1.008,-0.45 2.106,-0.675 3.294,-0.675c1.044,-0 2.367,0.207 3.969,0.621c1.602,0.414 3.483,1.125 5.643,2.133l-2.592,3.078Z" style="fill:#3b3c3d;fill-rule:nonzero;"/><path d="M396.048,21.642c-1.836,-0.936 -3.42,-1.593 -4.752,-1.971c-1.332,-0.378 -2.52,-0.567 -3.564,-0.567c-0.9,0 -1.836,0.648 -2.808,1.944c0.72,0.432 1.476,0.855 2.268,1.269c0.792,0.414 1.764,0.909 2.916,1.485c1.188,0.576 2.133,1.107 2.835,1.593c0.702,0.486 1.206,0.963 1.512,1.431c0.306,0.468 0.441,0.945 0.405,1.431c-0.036,0.486 -0.198,1.017 -0.486,1.593c-0.468,0.972 -0.954,1.782 -1.458,2.43c-0.504,0.648 -1.08,1.161 -1.728,1.539c-0.648,0.378 -1.377,0.639 -2.187,0.783c-0.81,0.144 -1.755,0.216 -2.835,0.216c-1.512,0 -3.033,-0.198 -4.563,-0.594c-1.53,-0.396 -3.213,-1.044 -5.049,-1.944l2.214,-3.51c1.512,0.756 3.132,1.368 4.86,1.836c1.728,0.468 3.222,0.702 4.482,0.702c0.936,-0 1.566,-0.072 1.89,-0.216c0.324,-0.144 0.594,-0.468 0.81,-0.972c0.072,-0.18 0.099,-0.342 0.081,-0.486c-0.018,-0.144 -0.117,-0.315 -0.297,-0.513c-0.18,-0.198 -0.468,-0.423 -0.864,-0.675c-0.396,-0.252 -0.954,-0.558 -1.674,-0.918c-1.476,-0.684 -2.682,-1.305 -3.618,-1.863c-0.936,-0.558 -1.674,-1.08 -2.214,-1.566c-0.54,-0.486 -0.918,-0.927 -1.134,-1.323c-0.216,-0.396 -0.324,-0.756 -0.324,-1.08c-0,-0.432 0.207,-0.981 0.621,-1.647c0.414,-0.666 0.99,-1.314 1.728,-1.944c0.738,-0.63 1.611,-1.17 2.619,-1.62c1.008,-0.45 2.106,-0.675 3.294,-0.675c1.044,-0 2.367,0.207 3.969,0.621c1.602,0.414 3.483,1.125 5.643,2.133l-2.592,3.078Z" style="fill:#3b3c3d;fill-rule:nonzero;"/><path d="M427.884,20.886c0,1.224 -0.288,2.403 -0.864,3.537c-0.576,1.134 -1.323,2.214 -2.241,3.24c-0.918,1.026 -1.944,1.962 -3.078,2.808c-1.134,0.846 -2.268,1.566 -3.402,2.16c-1.134,0.594 -2.214,1.062 -3.24,1.404c-1.026,0.342 -1.863,0.513 -2.511,0.513c-0.756,-0 -1.521,-0.189 -2.295,-0.567c-0.774,-0.378 -1.485,-0.846 -2.133,-1.404c-0.648,-0.558 -1.17,-1.17 -1.566,-1.836c-0.396,-0.666 -0.594,-1.305 -0.594,-1.917c-0,-1.188 0.315,-2.403 0.945,-3.645c0.63,-1.242 1.467,-2.421 2.511,-3.537c1.044,-1.116 2.232,-2.115 3.564,-2.997c1.332,-0.882 2.718,-1.557 4.158,-2.025l1.836,1.296c1.116,-0.288 2.025,-0.522 2.727,-0.702c0.702,-0.18 1.269,-0.315 1.701,-0.405c0.432,-0.09 0.774,-0.144 1.026,-0.162c0.252,-0.018 0.486,-0.027 0.702,-0.027c0.9,-0 1.584,0.396 2.052,1.188c0.468,0.792 0.702,1.818 0.702,3.078Zm-6.264,1.89c-0,-0.504 -0.108,-1.062 -0.324,-1.674c-0.216,-0.612 -0.504,-1.224 -0.864,-1.836l-1.188,0c-1.116,0.612 -2.115,1.341 -2.997,2.187c-0.882,0.846 -1.638,1.728 -2.268,2.646c-0.63,0.918 -1.107,1.845 -1.431,2.781c-0.324,0.936 -0.486,1.8 -0.486,2.592c0,0.216 0.009,0.414 0.027,0.594c0.018,0.18 0.063,0.414 0.135,0.702l1.188,0.432c1.116,-0.468 2.178,-1.017 3.186,-1.647c1.008,-0.63 1.881,-1.314 2.619,-2.052c0.738,-0.738 1.323,-1.503 1.755,-2.295c0.432,-0.792 0.648,-1.602 0.648,-2.43Z" style="fill:#3b3c3d;fill-rule:nonzero;"/><path d="M452.214,23.478l-1.08,-4.968l-4.05,0.864c-0.54,0.72 -1.062,1.485 -1.566,2.295c-0.504,0.81 -0.972,1.62 -1.404,2.43c-0.432,0.81 -0.81,1.566 -1.134,2.268c-0.324,0.702 -0.558,1.287 -0.702,1.755c-0.108,0.324 -0.108,0.621 0,0.891c0.108,0.27 0.432,0.675 0.972,1.215c0.468,0.504 0.891,0.783 1.269,0.837c0.378,0.054 1.017,0.009 1.917,-0.135c0.468,-0.072 0.936,-0.171 1.404,-0.297c0.468,-0.126 1.017,-0.306 1.647,-0.54c0.63,-0.234 1.395,-0.549 2.295,-0.945c0.9,-0.396 2.016,-0.9 3.348,-1.512l-0.324,1.62c-0.072,0.396 -0.216,0.702 -0.432,0.918c-0.216,0.216 -0.594,0.45 -1.134,0.702c-1.152,0.504 -2.295,0.972 -3.429,1.404c-1.134,0.432 -2.196,0.81 -3.186,1.134c-0.99,0.324 -1.881,0.576 -2.673,0.756c-0.792,0.18 -1.404,0.27 -1.836,0.27c-0.648,0 -1.35,-0.18 -2.106,-0.54c-0.756,-0.36 -1.449,-0.792 -2.079,-1.296c-0.63,-0.504 -1.152,-1.053 -1.566,-1.647c-0.414,-0.594 -0.621,-1.107 -0.621,-1.539c-0,-0.756 0.234,-1.701 0.702,-2.835c0.468,-1.134 1.062,-2.259 1.782,-3.375c0.72,-1.116 1.521,-2.124 2.403,-3.024c0.882,-0.9 1.737,-1.512 2.565,-1.836c1.512,-0.612 2.943,-1.089 4.293,-1.431c1.35,-0.342 2.835,-0.513 4.455,-0.513c1.152,0 2.025,0.09 2.619,0.27c0.594,0.18 0.999,0.414 1.215,0.702c0.792,0.972 1.422,2.772 1.89,5.4l-5.454,0.702Z" style="fill:#3b3c3d;fill-rule:nonzero;"/><path d="M477.192,14.244c-1.44,0.288 -2.646,0.432 -3.618,0.432c-1.152,-0 -2.115,-0.162 -2.889,-0.486c-0.774,-0.324 -1.161,-0.774 -1.161,-1.35c-0,-0.36 0.153,-0.711 0.459,-1.053c0.306,-0.342 0.693,-0.657 1.161,-0.945c0.468,-0.288 0.999,-0.522 1.593,-0.702c0.594,-0.18 1.161,-0.27 1.701,-0.27c0.468,-0 0.828,0.063 1.08,0.189c0.252,0.126 0.378,0.441 0.378,0.945l-0,0.864c-0,0.288 0.117,0.657 0.351,1.107c0.234,0.45 0.549,0.873 0.945,1.269Zm-2.268,3.24c-1.728,2.592 -2.997,5.256 -3.807,7.992c-0.81,2.736 -1.305,5.526 -1.485,8.37l-6.264,1.296c0.36,-3.06 0.927,-5.895 1.701,-8.505c0.774,-2.61 1.881,-5.247 3.321,-7.911l6.534,-1.242Z" style="fill:#3b3c3d;fill-rule:nonzero;"/><path d="M506.112,22.02c0.288,0.54 0.414,0.936 0.378,1.188c-0.036,0.252 -0.216,0.558 -0.54,0.918c-0.72,0.756 -1.287,1.377 -1.701,1.863c-0.414,0.486 -0.72,0.882 -0.918,1.188c-0.198,0.306 -0.324,0.549 -0.378,0.729c-0.054,0.18 -0.081,0.324 -0.081,0.432c0,0.864 0.153,1.827 0.459,2.889c0.306,1.062 0.747,1.953 1.323,2.673l-4.698,0.702c-0.468,-0.612 -0.828,-1.287 -1.08,-2.025c-0.252,-0.738 -0.414,-1.683 -0.486,-2.835c-1.404,0.972 -2.619,1.782 -3.645,2.43c-1.026,0.648 -1.917,1.161 -2.673,1.539c-0.756,0.378 -1.422,0.639 -1.998,0.783c-0.576,0.144 -1.134,0.216 -1.674,0.216c-0.54,-0 -1.125,-0.126 -1.755,-0.378c-0.63,-0.252 -1.197,-0.576 -1.701,-0.972c-0.504,-0.396 -0.927,-0.828 -1.269,-1.296c-0.342,-0.468 -0.513,-0.918 -0.513,-1.35c-0,-0.756 0.378,-1.584 1.134,-2.484c0.756,-0.9 1.863,-1.818 3.321,-2.754c1.458,-0.936 3.267,-1.863 5.427,-2.781c2.16,-0.918 4.644,-1.773 7.452,-2.565c-1.512,-0.504 -3.312,-0.729 -5.4,-0.675c-2.088,0.054 -4.428,0.441 -7.02,1.161l0.378,-2.43c2.196,-0.72 4.365,-1.125 6.507,-1.215c2.142,-0.09 3.969,0.027 5.481,0.351c0.864,0.18 1.566,0.387 2.106,0.621c0.54,0.234 1.008,0.54 1.404,0.918c0.396,0.378 0.756,0.819 1.08,1.323c0.324,0.504 0.684,1.116 1.08,1.836Zm-6.264,0.27c-3.492,1.332 -6.138,2.709 -7.938,4.131c-1.8,1.422 -3.06,2.907 -3.78,4.455l2.106,1.134c1.368,-0.54 2.781,-1.224 4.239,-2.052c1.458,-0.828 2.763,-1.728 3.915,-2.7c0.18,-0.504 0.477,-1.08 0.891,-1.728c0.414,-0.648 1.035,-1.512 1.863,-2.592l-1.296,-0.648Z" style="fill:#3b3c3d;fill-rule:nonzero;"/><path d="M534.816,19.05c-1.296,0.756 -2.538,1.548 -3.726,2.376c-1.188,0.828 -2.376,1.71 -3.564,2.646c-1.188,0.936 -2.412,1.944 -3.672,3.024c-1.26,1.08 -2.592,2.232 -3.996,3.456c0.9,-0.144 1.737,-0.252 2.511,-0.324c0.774,-0.072 1.593,-0.108 2.457,-0.108c0.864,0 1.827,0.036 2.889,0.108c1.062,0.072 2.331,0.18 3.807,0.324l-1.944,3.78c-1.224,-0.108 -2.394,-0.171 -3.51,-0.189c-1.116,-0.018 -2.232,-0 -3.348,0.054c-1.116,0.054 -2.259,0.135 -3.429,0.243c-1.17,0.108 -2.421,0.252 -3.753,0.432l-1.728,-3.996c1.512,-0.936 2.898,-1.845 4.158,-2.727c1.26,-0.882 2.439,-1.773 3.537,-2.673c1.098,-0.9 2.124,-1.8 3.078,-2.7c0.954,-0.9 1.899,-1.854 2.835,-2.862c-1.98,0.288 -3.825,0.405 -5.535,0.351c-1.71,-0.054 -3.069,-0.225 -4.077,-0.513l1.35,-3.456c1.296,0.144 2.565,0.243 3.807,0.297c1.242,0.054 2.52,0.054 3.834,0c1.314,-0.054 2.691,-0.144 4.131,-0.27c1.44,-0.126 3.006,-0.297 4.698,-0.513l-0.81,3.24Z" style="fill:#3b3c3d;fill-rule:nonzero;"/><path d="M555.69,14.244c-1.44,0.288 -2.646,0.432 -3.618,0.432c-1.152,-0 -2.115,-0.162 -2.889,-0.486c-0.774,-0.324 -1.161,-0.774 -1.161,-1.35c-0,-0.36 0.153,-0.711 0.459,-1.053c0.306,-0.342 0.693,-0.657 1.161,-0.945c0.468,-0.288 0.999,-0.522 1.593,-0.702c0.594,-0.18 1.161,-0.27 1.701,-0.27c0.468,-0 0.828,0.063 1.08,0.189c0.252,0.126 0.378,0.441 0.378,0.945l-0,0.864c-0,0.288 0.117,0.657 0.351,1.107c0.234,0.45 0.549,0.873 0.945,1.269Zm-2.268,3.24c-1.728,2.592 -2.997,5.256 -3.807,7.992c-0.81,2.736 -1.305,5.526 -1.485,8.37l-6.264,1.296c0.36,-3.06 0.927,-5.895 1.701,-8.505c0.774,-2.61 1.881,-5.247 3.321,-7.911l6.534,-1.242Z" style="fill:#3b3c3d;fill-rule:nonzero;"/><path d="M583.583,20.886c0,1.224 -0.288,2.403 -0.864,3.537c-0.576,1.134 -1.323,2.214 -2.241,3.24c-0.918,1.026 -1.944,1.962 -3.078,2.808c-1.134,0.846 -2.268,1.566 -3.402,2.16c-1.134,0.594 -2.214,1.062 -3.24,1.404c-1.026,0.342 -1.863,0.513 -2.511,0.513c-0.756,-0 -1.521,-0.189 -2.295,-0.567c-0.774,-0.378 -1.485,-0.846 -2.133,-1.404c-0.648,-0.558 -1.17,-1.17 -1.566,-1.836c-0.396,-0.666 -0.594,-1.305 -0.594,-1.917c-0,-1.188 0.315,-2.403 0.945,-3.645c0.63,-1.242 1.467,-2.421 2.511,-3.537c1.044,-1.116 2.232,-2.115 3.564,-2.997c1.332,-0.882 2.718,-1.557 4.158,-2.025l1.836,1.296c1.116,-0.288 2.025,-0.522 2.727,-0.702c0.702,-0.18 1.269,-0.315 1.701,-0.405c0.432,-0.09 0.774,-0.144 1.026,-0.162c0.252,-0.018 0.486,-0.027 0.702,-0.027c0.9,-0 1.584,0.396 2.052,1.188c0.468,0.792 0.702,1.818 0.702,3.078Zm-6.264,1.89c-0,-0.504 -0.108,-1.062 -0.324,-1.674c-0.216,-0.612 -0.504,-1.224 -0.864,-1.836l-1.188,0c-1.116,0.612 -2.115,1.341 -2.997,2.187c-0.882,0.846 -1.638,1.728 -2.268,2.646c-0.63,0.918 -1.107,1.845 -1.431,2.781c-0.324,0.936 -0.486,1.8 -0.486,2.592c-0,0.216 0.009,0.414 0.027,0.594c0.018,0.18 0.063,0.414 0.135,0.702l1.188,0.432c1.116,-0.468 2.178,-1.017 3.186,-1.647c1.008,-0.63 1.881,-1.314 2.619,-2.052c0.738,-0.738 1.323,-1.503 1.755,-2.295c0.432,-0.792 0.648,-1.602 0.648,-2.43Z" style="fill:#3b3c3d;fill-rule:nonzero;"/><path d="M614.393,19.158c0,0.396 -0.18,0.936 -0.54,1.62c-1.044,1.944 -1.872,3.915 -2.484,5.913c-0.612,1.998 -1.008,4.131 -1.188,6.399l-5.832,1.404c0.396,-2.484 1.026,-4.896 1.89,-7.236c0.864,-2.34 1.872,-4.32 3.024,-5.94l-1.296,-1.35c-1.296,0.432 -2.511,0.981 -3.645,1.647c-1.134,0.666 -2.133,1.368 -2.997,2.106c-0.864,0.738 -1.557,1.449 -2.079,2.133c-0.522,0.684 -0.837,1.26 -0.945,1.728c-0.324,1.548 -0.648,2.799 -0.972,3.753c-0.324,0.954 -0.639,1.683 -0.945,2.187c-0.306,0.504 -0.594,0.819 -0.864,0.945c-0.27,0.126 -0.531,0.135 -0.783,0.027c-0.864,-0.36 -1.539,-0.774 -2.025,-1.242c-0.486,-0.468 -0.999,-1.098 -1.539,-1.89c-0.54,-0.684 -0.378,-1.35 0.486,-1.998c0.468,-0.36 0.864,-0.729 1.188,-1.107c0.324,-0.378 0.576,-0.828 0.756,-1.35c0.18,-0.522 0.306,-1.152 0.378,-1.89c0.072,-0.738 0.108,-1.647 0.108,-2.727c-0,-1.296 -0.009,-2.259 -0.027,-2.889c-0.018,-0.63 -0.063,-1.197 -0.135,-1.701l5.67,-1.08c0.072,1.008 0.081,1.98 0.027,2.916c-0.054,0.936 -0.225,1.962 -0.513,3.078c0.756,-0.792 1.683,-1.548 2.781,-2.268c1.098,-0.72 2.223,-1.359 3.375,-1.917c1.152,-0.558 2.268,-0.999 3.348,-1.323c1.08,-0.324 1.98,-0.486 2.7,-0.486c0.18,-0 0.441,0.099 0.783,0.297c0.342,0.198 0.684,0.441 1.026,0.729c0.342,0.288 0.639,0.576 0.891,0.864c0.252,0.288 0.378,0.504 0.378,0.648Z" style="fill:#3b3c3d;fill-rule:nonzero;"/><path d="M643.206,20.076c-0,1.044 -0.207,1.908 -0.621,2.592c-0.414,0.684 -1.197,1.269 -2.349,1.755c-1.152,0.486 -2.745,0.909 -4.779,1.269c-2.034,0.36 -4.671,0.756 -7.911,1.188c0.072,0.72 0.369,1.503 0.891,2.349c0.522,0.846 1.197,1.521 2.025,2.025c1.044,-0.216 2.025,-0.432 2.943,-0.648c0.918,-0.216 1.809,-0.45 2.673,-0.702c0.864,-0.252 1.737,-0.54 2.619,-0.864c0.882,-0.324 1.809,-0.702 2.781,-1.134l-0.162,1.458c-0.036,0.252 -0.099,0.477 -0.189,0.675c-0.09,0.198 -0.315,0.405 -0.675,0.621c-0.36,0.216 -0.9,0.477 -1.62,0.783c-0.72,0.306 -1.728,0.693 -3.024,1.161c-1.332,0.504 -2.682,0.918 -4.05,1.242c-1.368,0.324 -2.466,0.486 -3.294,0.486c-0.756,0 -1.539,-0.171 -2.349,-0.513c-0.81,-0.342 -1.548,-0.765 -2.214,-1.269c-0.666,-0.504 -1.206,-1.053 -1.62,-1.647c-0.414,-0.594 -0.621,-1.161 -0.621,-1.701c-0,-0.504 0.054,-0.981 0.162,-1.431c0.108,-0.45 0.297,-0.963 0.567,-1.539c0.27,-0.576 0.657,-1.26 1.161,-2.052c0.504,-0.792 1.134,-1.782 1.89,-2.97c0.936,-1.368 2.475,-2.511 4.617,-3.429c2.142,-0.918 4.851,-1.377 8.127,-1.377c1.872,0 3.177,0.252 3.915,0.756c0.738,0.504 1.107,1.476 1.107,2.916Zm-5.508,-1.62l-5.67,0.702c-0.72,0.936 -1.377,1.827 -1.971,2.673c-0.594,0.846 -1.233,1.845 -1.917,2.997c2.052,-0.18 3.708,-0.378 4.968,-0.594c1.26,-0.216 2.223,-0.486 2.889,-0.81c0.666,-0.324 1.116,-0.702 1.35,-1.134c0.234,-0.432 0.351,-0.954 0.351,-1.566l-0,-2.268Z" style="fill:#3b3c3d;fill-rule:nonzero;"/><path d="M340.422,65.73c-1.728,-0.684 -3.168,-1.233 -4.32,-1.647c-1.152,-0.414 -2.133,-0.738 -2.943,-0.972c-0.81,-0.234 -1.512,-0.387 -2.106,-0.459c-0.594,-0.072 -1.179,-0.108 -1.755,-0.108c-1.224,-0 -2.349,0.288 -3.375,0.864c-1.026,0.576 -1.953,1.386 -2.781,2.43c0.252,0.324 0.531,0.621 0.837,0.891c0.306,0.27 0.729,0.576 1.269,0.918c0.54,0.342 1.233,0.738 2.079,1.188c0.846,0.45 1.935,1.017 3.267,1.701c1.512,0.756 2.745,1.413 3.699,1.971c0.954,0.558 1.701,1.071 2.241,1.539c0.54,0.468 0.918,0.9 1.134,1.296c0.216,0.396 0.324,0.81 0.324,1.242c0,1.044 -0.423,2.115 -1.269,3.213c-0.846,1.098 -1.953,2.106 -3.321,3.024c-1.368,0.918 -2.916,1.674 -4.644,2.268c-1.728,0.594 -3.474,0.891 -5.238,0.891c-0.828,0 -1.728,-0.072 -2.7,-0.216c-0.972,-0.144 -1.971,-0.351 -2.997,-0.621c-1.026,-0.27 -2.043,-0.594 -3.051,-0.972c-1.008,-0.378 -1.962,-0.801 -2.862,-1.269l3.078,-4.212c2.196,0.936 4.23,1.683 6.102,2.241c1.872,0.558 3.528,0.837 4.968,0.837c2.988,-0 5.454,-1.17 7.398,-3.51c-1.836,-1.188 -3.618,-2.241 -5.346,-3.159c-1.728,-0.918 -3.312,-1.737 -4.752,-2.457c-0.972,-0.468 -1.782,-0.909 -2.43,-1.323c-0.648,-0.414 -1.179,-0.837 -1.593,-1.269c-0.414,-0.432 -0.702,-0.873 -0.864,-1.323c-0.162,-0.45 -0.243,-0.963 -0.243,-1.539c-0,-0.756 0.387,-1.62 1.161,-2.592c0.774,-0.972 1.782,-1.881 3.024,-2.727c1.242,-0.846 2.655,-1.557 4.239,-2.133c1.584,-0.576 3.168,-0.864 4.752,-0.864c2.124,0 4.14,0.216 6.048,0.648c1.908,0.432 3.996,1.206 6.264,2.322l-3.294,3.888Z" style="fill:#3b3c3d;fill-rule:nonzero;"/><path d="M369.852,85.872c-0.648,-1.512 -1.17,-2.961 -1.566,-4.347c-0.396,-1.386 -0.702,-2.961 -0.918,-4.725c-1.152,-0.36 -2.313,-0.585 -3.483,-0.675c-1.17,-0.09 -2.619,-0.099 -4.347,-0.027c-1.584,1.98 -2.952,3.609 -4.104,4.887c-1.152,1.278 -2.142,2.286 -2.97,3.024c-0.828,0.738 -1.503,1.251 -2.025,1.539c-0.522,0.288 -0.927,0.432 -1.215,0.432c-1.152,0 -1.728,-1.062 -1.728,-3.186c0,-0.684 0.081,-1.296 0.243,-1.836c0.162,-0.54 0.504,-1.062 1.026,-1.566c0.522,-0.504 1.242,-1.035 2.16,-1.593c0.918,-0.558 2.133,-1.197 3.645,-1.917c0.72,-0.36 1.278,-0.684 1.674,-0.972c0.396,-0.288 0.792,-0.63 1.188,-1.026c1.188,-1.188 2.286,-2.394 3.294,-3.618c1.008,-1.224 1.89,-2.421 2.646,-3.591c0.756,-1.17 1.359,-2.277 1.809,-3.321c0.45,-1.044 0.711,-1.998 0.783,-2.862c1.26,-0.216 2.43,-0.45 3.51,-0.702c1.08,-0.252 2.268,-0.576 3.564,-0.972c-0.288,1.296 -0.513,2.727 -0.675,4.293c-0.162,1.566 -0.243,3.033 -0.243,4.401c-0,2.16 0.063,4.059 0.189,5.697c0.126,1.638 0.324,3.123 0.594,4.455c0.27,1.332 0.612,2.556 1.026,3.672c0.414,1.116 0.909,2.214 1.485,3.294l-5.562,1.242Zm-2.268,-22.464c-0.828,1.836 -1.773,3.645 -2.835,5.427c-1.062,1.782 -2.349,3.537 -3.861,5.265c1.044,-0.144 2.034,-0.234 2.97,-0.27c0.936,-0.036 2.034,-0.018 3.294,0.054l0,-2.43c0,-1.044 0.036,-2.331 0.108,-3.861c0.072,-1.53 0.18,-2.925 0.324,-4.185Z" style="fill:#3b3c3d;fill-rule:nonzero;"/><path d="M415.482,60.222c-0,0.612 -0.252,1.872 -0.756,3.78c-0.324,1.224 -0.747,2.637 -1.269,4.239c-0.522,1.602 -1.116,3.33 -1.782,5.184c-0.666,1.854 -1.422,3.789 -2.268,5.805c-0.846,2.016 -1.755,4.032 -2.727,6.048l-3.672,1.026c-2.52,-3.06 -4.581,-6.462 -6.183,-10.206c-1.602,-3.744 -2.619,-7.416 -3.051,-11.016c-0.468,2.268 -1.008,4.374 -1.62,6.318c-0.612,1.944 -1.287,3.78 -2.025,5.508c-0.738,1.728 -1.548,3.366 -2.43,4.914c-0.882,1.548 -1.827,3.06 -2.835,4.536l-5.13,-1.836c3.492,-3.816 6.327,-7.695 8.505,-11.637c2.178,-3.942 3.411,-8.091 3.699,-12.447l6.966,-1.62c-0.18,1.836 -0.108,3.798 0.216,5.886c0.324,2.088 0.819,4.122 1.485,6.102c0.666,1.98 1.449,3.843 2.349,5.589c0.9,1.746 1.836,3.195 2.808,4.347c1.692,-3.492 2.808,-6.498 3.348,-9.018c0.108,-0.576 0.135,-1.071 0.081,-1.485c-0.054,-0.414 -0.207,-0.945 -0.459,-1.593c-0.864,-2.268 -1.035,-4.176 -0.513,-5.724c0.522,-1.548 1.971,-2.736 4.347,-3.564c1.08,-0.396 1.836,-0.513 2.268,-0.351c0.432,0.162 0.648,0.567 0.648,1.215Z" style="fill:#3b3c3d;fill-rule:nonzero;"/><path d="M481.482,64.488c-0.864,1.044 -1.62,2.646 -2.268,4.806c-0.648,2.16 -0.972,4.824 -0.972,7.992c0,1.188 0.072,2.394 0.216,3.618c0.144,1.224 0.378,2.43 0.702,3.618l-5.508,1.242c-0.576,-1.62 -0.864,-3.402 -0.864,-5.346c-0,-1.728 0.135,-3.573 0.405,-5.535c0.27,-1.962 0.765,-4.023 1.485,-6.183c-0.576,1.152 -1.296,2.385 -2.16,3.699c-0.864,1.314 -1.791,2.619 -2.781,3.915c-0.99,1.296 -2.007,2.529 -3.051,3.699c-1.044,1.17 -2.034,2.205 -2.97,3.105c-0.936,0.9 -1.782,1.62 -2.538,2.16c-0.756,0.54 -1.332,0.81 -1.728,0.81c-0.468,-0 -0.9,-0.351 -1.296,-1.053c-0.396,-0.702 -0.729,-1.638 -0.999,-2.808c-0.27,-1.17 -0.486,-2.511 -0.648,-4.023c-0.162,-1.512 -0.243,-3.06 -0.243,-4.644c0,-1.224 0.009,-2.358 0.027,-3.402c0.018,-1.044 0.063,-2.286 0.135,-3.726c-0.684,2.124 -1.359,4.023 -2.025,5.697c-0.666,1.674 -1.377,3.258 -2.133,4.752c-0.756,1.494 -1.611,2.961 -2.565,4.401c-0.954,1.44 -2.043,2.97 -3.267,4.59l-5.184,-1.728c1.872,-1.584 3.636,-3.321 5.292,-5.211c1.656,-1.89 3.105,-3.861 4.347,-5.913c1.242,-2.052 2.259,-4.149 3.051,-6.291c0.792,-2.142 1.278,-4.275 1.458,-6.399l6.858,-1.35c-0.18,0.648 -0.342,1.413 -0.486,2.295c-0.144,0.882 -0.27,1.809 -0.378,2.781c-0.108,0.972 -0.198,1.944 -0.27,2.916c-0.072,0.972 -0.108,1.872 -0.108,2.7c-0,1.908 0.036,3.492 0.108,4.752c0.072,1.26 0.171,2.259 0.297,2.997c0.126,0.738 0.279,1.251 0.459,1.539c0.18,0.288 0.36,0.432 0.54,0.432c0.504,-0 1.305,-0.477 2.403,-1.431c1.098,-0.954 2.304,-2.259 3.618,-3.915c1.314,-1.656 2.628,-3.609 3.942,-5.859c1.314,-2.25 2.439,-4.671 3.375,-7.263c0.216,-0.612 0.459,-1.089 0.729,-1.431c0.27,-0.342 0.657,-0.513 1.161,-0.513c0.36,0 0.837,0.261 1.431,0.783c0.594,0.522 1.251,1.251 1.971,2.187c0.504,0.72 0.774,1.242 0.81,1.566c0.036,0.324 -0.09,0.648 -0.378,0.972Z" style="fill:#3b3c3d;fill-rule:nonzero;"/><path d="M508.536,85.872c-0.648,-1.512 -1.17,-2.961 -1.566,-4.347c-0.396,-1.386 -0.702,-2.961 -0.918,-4.725c-1.152,-0.36 -2.313,-0.585 -3.483,-0.675c-1.17,-0.09 -2.619,-0.099 -4.347,-0.027c-1.584,1.98 -2.952,3.609 -4.104,4.887c-1.152,1.278 -2.142,2.286 -2.97,3.024c-0.828,0.738 -1.503,1.251 -2.025,1.539c-0.522,0.288 -0.927,0.432 -1.215,0.432c-1.152,0 -1.728,-1.062 -1.728,-3.186c-0,-0.684 0.081,-1.296 0.243,-1.836c0.162,-0.54 0.504,-1.062 1.026,-1.566c0.522,-0.504 1.242,-1.035 2.16,-1.593c0.918,-0.558 2.133,-1.197 3.645,-1.917c0.72,-0.36 1.278,-0.684 1.674,-0.972c0.396,-0.288 0.792,-0.63 1.188,-1.026c1.188,-1.188 2.286,-2.394 3.294,-3.618c1.008,-1.224 1.89,-2.421 2.646,-3.591c0.756,-1.17 1.359,-2.277 1.809,-3.321c0.45,-1.044 0.711,-1.998 0.783,-2.862c1.26,-0.216 2.43,-0.45 3.51,-0.702c1.08,-0.252 2.268,-0.576 3.564,-0.972c-0.288,1.296 -0.513,2.727 -0.675,4.293c-0.162,1.566 -0.243,3.033 -0.243,4.401c-0,2.16 0.063,4.059 0.189,5.697c0.126,1.638 0.324,3.123 0.594,4.455c0.27,1.332 0.612,2.556 1.026,3.672c0.414,1.116 0.909,2.214 1.485,3.294l-5.562,1.242Zm-2.268,-22.464c-0.828,1.836 -1.773,3.645 -2.835,5.427c-1.062,1.782 -2.349,3.537 -3.861,5.265c1.044,-0.144 2.034,-0.234 2.97,-0.27c0.936,-0.036 2.034,-0.018 3.294,0.054l-0,-2.43c-0,-1.044 0.036,-2.331 0.108,-3.861c0.072,-1.53 0.18,-2.925 0.324,-4.185Z" style="fill:#3b3c3d;fill-rule:nonzero;"/><path d="M548.82,64.596c0,1.836 -1.062,3.528 -3.186,5.076c-2.124,1.548 -5.238,2.79 -9.342,3.726c0.144,0.576 0.54,1.314 1.188,2.214c0.648,0.9 1.422,1.836 2.322,2.808c0.9,0.972 1.863,1.908 2.889,2.808c1.026,0.9 2.007,1.638 2.943,2.214l-5.67,2.862c-1.26,-1.008 -2.457,-2.133 -3.591,-3.375c-1.134,-1.242 -2.124,-2.466 -2.97,-3.672c-0.846,-1.206 -1.521,-2.304 -2.025,-3.294c-0.504,-0.99 -0.756,-1.719 -0.756,-2.187c0,-0.504 0.306,-0.846 0.918,-1.026c2.232,-0.612 4.05,-1.206 5.454,-1.782c1.404,-0.576 2.511,-1.179 3.321,-1.809c0.81,-0.63 1.359,-1.314 1.647,-2.052c0.288,-0.738 0.432,-1.575 0.432,-2.511c-0,-0.432 -0.135,-0.774 -0.405,-1.026c-0.27,-0.252 -0.855,-0.54 -1.755,-0.864c-2.916,1.368 -5.364,3.078 -7.344,5.13c-1.98,2.052 -3.384,4.428 -4.212,7.128c-0.396,1.224 -0.873,2.61 -1.431,4.158c-0.558,1.548 -1.197,3.24 -1.917,5.076c-0.324,0.828 -0.63,1.386 -0.918,1.674c-0.288,0.288 -0.612,0.432 -0.972,0.432c-0.396,0 -0.855,-0.162 -1.377,-0.486c-0.522,-0.324 -1.008,-0.711 -1.458,-1.161c-0.45,-0.45 -0.837,-0.936 -1.161,-1.458c-0.324,-0.522 -0.486,-0.981 -0.486,-1.377c0,-0.288 0.054,-0.576 0.162,-0.864c0.108,-0.288 0.342,-0.72 0.702,-1.296c0.36,-0.576 0.9,-1.359 1.62,-2.349c0.72,-0.99 1.692,-2.313 2.916,-3.969c0.252,-0.324 0.477,-0.72 0.675,-1.188c0.198,-0.468 0.369,-1.161 0.513,-2.079c0.144,-0.918 0.252,-2.133 0.324,-3.645c0.072,-1.512 0.108,-3.474 0.108,-5.886l6.912,-1.35c-0.18,1.224 -0.405,2.412 -0.675,3.564c-0.27,1.152 -0.549,2.286 -0.837,3.402c2.304,-2.412 4.257,-4.176 5.859,-5.292c1.602,-1.116 3.087,-1.674 4.455,-1.674c0.864,-0 1.719,0.18 2.565,0.54c0.846,0.36 1.611,0.81 2.295,1.35c0.684,0.54 1.233,1.125 1.647,1.755c0.414,0.63 0.621,1.215 0.621,1.755Z" style="fill:#3b3c3d;fill-rule:nonzero;"/><path d="M566.964,61.14c-0,1.584 -0.126,3.195 -0.378,4.833c-0.252,1.638 -0.684,3.429 -1.296,5.373c-0.612,1.944 -1.422,4.113 -2.43,6.507c-1.008,2.394 -2.268,5.139 -3.78,8.235l-4.914,-1.242c2.088,-4.536 3.645,-8.649 4.671,-12.339c1.026,-3.69 1.539,-6.777 1.539,-9.261c-0,-0.432 -0.018,-0.864 -0.054,-1.296c-0.036,-0.432 -0.09,-0.864 -0.162,-1.296l6.642,-1.62c0.108,0.72 0.162,1.422 0.162,2.106Z" style="fill:#3b3c3d;fill-rule:nonzero;"/><path d="M609.354,60.222c0,0.612 -0.252,1.872 -0.756,3.78c-0.324,1.224 -0.747,2.637 -1.269,4.239c-0.522,1.602 -1.116,3.33 -1.782,5.184c-0.666,1.854 -1.422,3.789 -2.268,5.805c-0.846,2.016 -1.755,4.032 -2.727,6.048l-3.672,1.026c-2.52,-3.06 -4.581,-6.462 -6.183,-10.206c-1.602,-3.744 -2.619,-7.416 -3.051,-11.016c-0.468,2.268 -1.008,4.374 -1.62,6.318c-0.612,1.944 -1.287,3.78 -2.025,5.508c-0.738,1.728 -1.548,3.366 -2.43,4.914c-0.882,1.548 -1.827,3.06 -2.835,4.536l-5.13,-1.836c3.492,-3.816 6.327,-7.695 8.505,-11.637c2.178,-3.942 3.411,-8.091 3.699,-12.447l6.966,-1.62c-0.18,1.836 -0.108,3.798 0.216,5.886c0.324,2.088 0.819,4.122 1.485,6.102c0.666,1.98 1.449,3.843 2.349,5.589c0.9,1.746 1.836,3.195 2.808,4.347c1.692,-3.492 2.808,-6.498 3.348,-9.018c0.108,-0.576 0.135,-1.071 0.081,-1.485c-0.054,-0.414 -0.207,-0.945 -0.459,-1.593c-0.864,-2.268 -1.035,-4.176 -0.513,-5.724c0.522,-1.548 1.971,-2.736 4.347,-3.564c1.08,-0.396 1.836,-0.513 2.268,-0.351c0.432,0.162 0.648,0.567 0.648,1.215Z" style="fill:#3b3c3d;fill-rule:nonzero;"/><path d="M643.59,67.35c0,1.692 -0.369,3.33 -1.107,4.914c-0.738,1.584 -1.692,3.069 -2.862,4.455c-1.17,1.386 -2.484,2.664 -3.942,3.834c-1.458,1.17 -2.907,2.178 -4.347,3.024c-1.44,0.846 -2.808,1.503 -4.104,1.971c-1.296,0.468 -2.358,0.702 -3.186,0.702c-0.72,0 -1.647,-0.297 -2.781,-0.891c-1.134,-0.594 -2.223,-1.359 -3.267,-2.295c-1.044,-0.936 -1.944,-1.962 -2.7,-3.078c-0.756,-1.116 -1.134,-2.196 -1.134,-3.24c-0,-1.62 0.351,-3.294 1.053,-5.022c0.702,-1.728 1.692,-3.384 2.97,-4.968c1.278,-1.584 2.781,-3.033 4.509,-4.347c1.728,-1.314 3.618,-2.385 5.67,-3.213l4.266,1.674l7.02,-1.404c0.324,0 0.711,0.189 1.161,0.567c0.45,0.378 0.882,0.909 1.296,1.593c0.414,0.684 0.765,1.512 1.053,2.484c0.288,0.972 0.432,2.052 0.432,3.24Zm-7.236,1.89c0,-0.648 -0.036,-1.242 -0.108,-1.782c-0.072,-0.54 -0.198,-1.08 -0.378,-1.62c-0.18,-0.54 -0.423,-1.116 -0.729,-1.728c-0.306,-0.612 -0.711,-1.314 -1.215,-2.106l-1.62,0.216c-2.16,1.08 -3.96,2.214 -5.4,3.402c-1.44,1.188 -2.61,2.475 -3.51,3.861c-0.9,1.386 -1.539,2.88 -1.917,4.482c-0.378,1.602 -0.567,3.357 -0.567,5.265c-0,0.252 0.036,0.495 0.108,0.729c0.072,0.234 0.234,0.513 0.486,0.837c0.252,0.324 0.594,0.702 1.026,1.134c0.432,0.432 1.008,0.972 1.728,1.62c1.512,-0.972 2.997,-1.998 4.455,-3.078c1.458,-1.08 2.754,-2.223 3.888,-3.429c1.134,-1.206 2.043,-2.457 2.727,-3.753c0.684,-1.296 1.026,-2.646 1.026,-4.05Z" style="fill:#3b3c3d;fill-rule:nonzero;"/><path d="M342.852,123.21c-1.26,0.576 -2.475,1.008 -3.645,1.296c-1.17,0.288 -2.385,0.522 -3.645,0.702l3.024,1.404c-0.612,0.54 -1.134,1.098 -1.566,1.674c-0.432,0.576 -0.792,1.224 -1.08,1.944c-0.288,0.72 -0.531,1.53 -0.729,2.43c-0.198,0.9 -0.351,1.962 -0.459,3.186l-6.048,1.296c0.18,-0.972 0.405,-1.863 0.675,-2.673c0.27,-0.81 0.675,-1.683 1.215,-2.619c-1.224,0.756 -2.313,1.422 -3.267,1.998c-0.954,0.576 -1.845,1.062 -2.673,1.458c-0.828,0.396 -1.602,0.693 -2.322,0.891c-0.72,0.198 -1.44,0.297 -2.16,0.297c-0.936,-0 -1.863,-0.306 -2.781,-0.918c-0.918,-0.612 -1.737,-1.332 -2.457,-2.16c-0.72,-0.828 -1.314,-1.692 -1.782,-2.592c-0.468,-0.9 -0.702,-1.656 -0.702,-2.268c0,-0.792 0.153,-1.701 0.459,-2.727c0.306,-1.026 0.684,-2.052 1.134,-3.078c0.45,-1.026 0.954,-1.998 1.512,-2.916c0.558,-0.918 1.089,-1.665 1.593,-2.241c2.232,-2.736 4.554,-4.725 6.966,-5.967c2.412,-1.242 5.22,-1.863 8.424,-1.863c0.828,-0 1.683,0.117 2.565,0.351c0.882,0.234 1.755,0.549 2.619,0.945c0.864,0.396 1.701,0.855 2.511,1.377c0.81,0.522 1.557,1.071 2.241,1.647l-4.212,2.97c-1.296,-0.9 -2.646,-1.665 -4.05,-2.295c-1.404,-0.63 -3.114,-1.233 -5.13,-1.809c-0.936,0.54 -1.926,1.359 -2.97,2.457c-1.044,1.098 -2.043,2.349 -2.997,3.753c-0.954,1.404 -1.809,2.916 -2.565,4.536c-0.756,1.62 -1.332,3.24 -1.728,4.86c0.108,0.432 0.315,0.9 0.621,1.404c0.306,0.504 0.675,0.972 1.107,1.404c0.432,0.432 0.882,0.792 1.35,1.08c0.468,0.288 0.918,0.432 1.35,0.432c0.576,-0 1.386,-0.216 2.43,-0.648c1.044,-0.432 2.106,-0.99 3.186,-1.674c1.08,-0.684 2.061,-1.467 2.943,-2.349c0.882,-0.882 1.449,-1.791 1.701,-2.727c-2.16,0.288 -3.987,0.396 -5.481,0.324c-1.494,-0.072 -2.511,-0.216 -3.051,-0.432l2.808,-3.672c2.088,0.396 4.455,0.531 7.101,0.405c2.646,-0.126 5.481,-0.513 8.505,-1.161l-0.54,2.268Z" style="fill:#3b3c3d;fill-rule:nonzero;"/><path d="M369.996,112.14c0,1.584 -0.126,3.195 -0.378,4.833c-0.252,1.638 -0.684,3.429 -1.296,5.373c-0.612,1.944 -1.422,4.113 -2.43,6.507c-1.008,2.394 -2.268,5.139 -3.78,8.235l-4.914,-1.242c2.088,-4.536 3.645,-8.649 4.671,-12.339c1.026,-3.69 1.539,-6.777 1.539,-9.261c-0,-0.432 -0.018,-0.864 -0.054,-1.296c-0.036,-0.432 -0.09,-0.864 -0.162,-1.296l6.642,-1.62c0.108,0.72 0.162,1.422 0.162,2.106Z" style="fill:#3b3c3d;fill-rule:nonzero;"/><path d="M407.994,136.872c-0.648,-1.512 -1.17,-2.961 -1.566,-4.347c-0.396,-1.386 -0.702,-2.961 -0.918,-4.725c-1.152,-0.36 -2.313,-0.585 -3.483,-0.675c-1.17,-0.09 -2.619,-0.099 -4.347,-0.027c-1.584,1.98 -2.952,3.609 -4.104,4.887c-1.152,1.278 -2.142,2.286 -2.97,3.024c-0.828,0.738 -1.503,1.251 -2.025,1.539c-0.522,0.288 -0.927,0.432 -1.215,0.432c-1.152,-0 -1.728,-1.062 -1.728,-3.186c0,-0.684 0.081,-1.296 0.243,-1.836c0.162,-0.54 0.504,-1.062 1.026,-1.566c0.522,-0.504 1.242,-1.035 2.16,-1.593c0.918,-0.558 2.133,-1.197 3.645,-1.917c0.72,-0.36 1.278,-0.684 1.674,-0.972c0.396,-0.288 0.792,-0.63 1.188,-1.026c1.188,-1.188 2.286,-2.394 3.294,-3.618c1.008,-1.224 1.89,-2.421 2.646,-3.591c0.756,-1.17 1.359,-2.277 1.809,-3.321c0.45,-1.044 0.711,-1.998 0.783,-2.862c1.26,-0.216 2.43,-0.45 3.51,-0.702c1.08,-0.252 2.268,-0.576 3.564,-0.972c-0.288,1.296 -0.513,2.727 -0.675,4.293c-0.162,1.566 -0.243,3.033 -0.243,4.401c-0,2.16 0.063,4.059 0.189,5.697c0.126,1.638 0.324,3.123 0.594,4.455c0.27,1.332 0.612,2.556 1.026,3.672c0.414,1.116 0.909,2.214 1.485,3.294l-5.562,1.242Zm-2.268,-22.464c-0.828,1.836 -1.773,3.645 -2.835,5.427c-1.062,1.782 -2.349,3.537 -3.861,5.265c1.044,-0.144 2.034,-0.234 2.97,-0.27c0.936,-0.036 2.034,-0.018 3.294,0.054l0,-2.43c0,-1.044 0.036,-2.331 0.108,-3.861c0.072,-1.53 0.18,-2.925 0.324,-4.185Z" style="fill:#3b3c3d;fill-rule:nonzero;"/><path d="M457.008,114.786c-0,1.548 -0.423,3.042 -1.269,4.482c-0.846,1.44 -1.953,2.709 -3.321,3.807c-1.368,1.098 -2.898,1.98 -4.59,2.646c-1.692,0.666 -3.384,0.999 -5.076,0.999c-0.684,-0 -1.35,-0.27 -1.998,-0.81c-0.648,-0.54 -0.972,-1.17 -0.972,-1.89c0,-0.36 0.234,-0.63 0.702,-0.81c0.468,-0.18 1.116,-0.162 1.944,0.054c0.396,0.108 0.927,0.225 1.593,0.351c0.666,0.126 1.485,0.225 2.457,0.297c1.512,-1.152 2.646,-2.421 3.402,-3.807c0.756,-1.386 1.224,-2.997 1.404,-4.833l-2.538,-1.188c-2.7,1.044 -5.175,3.024 -7.425,5.94c-2.25,2.916 -4.059,6.552 -5.427,10.908c-0.432,1.368 -0.801,2.457 -1.107,3.267c-0.306,0.81 -0.594,1.44 -0.864,1.89c-0.27,0.45 -0.54,0.747 -0.81,0.891c-0.27,0.144 -0.567,0.216 -0.891,0.216c-0.468,-0 -0.99,-0.216 -1.566,-0.648c-0.576,-0.432 -1.26,-1.152 -2.052,-2.16c-0.288,-0.324 -0.486,-0.648 -0.594,-0.972c-0.108,-0.324 -0.099,-0.711 0.027,-1.161c0.126,-0.45 0.396,-0.999 0.81,-1.647c0.414,-0.648 1.017,-1.458 1.809,-2.43c0.54,-0.648 0.99,-1.197 1.35,-1.647c0.36,-0.45 0.657,-0.864 0.891,-1.242c0.234,-0.378 0.423,-0.72 0.567,-1.026c0.144,-0.306 0.27,-0.657 0.378,-1.053c0.36,-1.116 0.648,-2.106 0.864,-2.97c0.216,-0.864 0.378,-1.728 0.486,-2.592c0.108,-0.864 0.162,-1.764 0.162,-2.7c0,-0.936 -0.018,-2.016 -0.054,-3.24l6.804,-1.62c-0.432,1.476 -0.801,2.781 -1.107,3.915c-0.306,1.134 -0.621,2.349 -0.945,3.645c1.08,-1.404 2.079,-2.574 2.997,-3.51c0.918,-0.936 1.764,-1.683 2.538,-2.241c0.774,-0.558 1.494,-0.963 2.16,-1.215c0.666,-0.252 1.287,-0.378 1.863,-0.378c0.972,0 1.908,0.135 2.808,0.405c0.9,0.27 1.683,0.621 2.349,1.053c0.666,0.432 1.206,0.918 1.62,1.458c0.414,0.54 0.621,1.062 0.621,1.566Z" style="fill:#3b3c3d;fill-rule:nonzero;"/><path d="M499.38,114.786c0,1.548 -0.423,3.042 -1.269,4.482c-0.846,1.44 -1.953,2.709 -3.321,3.807c-1.368,1.098 -2.898,1.98 -4.59,2.646c-1.692,0.666 -3.384,0.999 -5.076,0.999c-0.684,-0 -1.35,-0.27 -1.998,-0.81c-0.648,-0.54 -0.972,-1.17 -0.972,-1.89c-0,-0.36 0.234,-0.63 0.702,-0.81c0.468,-0.18 1.116,-0.162 1.944,0.054c0.396,0.108 0.927,0.225 1.593,0.351c0.666,0.126 1.485,0.225 2.457,0.297c1.512,-1.152 2.646,-2.421 3.402,-3.807c0.756,-1.386 1.224,-2.997 1.404,-4.833l-2.538,-1.188c-2.7,1.044 -5.175,3.024 -7.425,5.94c-2.25,2.916 -4.059,6.552 -5.427,10.908c-0.432,1.368 -0.801,2.457 -1.107,3.267c-0.306,0.81 -0.594,1.44 -0.864,1.89c-0.27,0.45 -0.54,0.747 -0.81,0.891c-0.27,0.144 -0.567,0.216 -0.891,0.216c-0.468,-0 -0.99,-0.216 -1.566,-0.648c-0.576,-0.432 -1.26,-1.152 -2.052,-2.16c-0.288,-0.324 -0.486,-0.648 -0.594,-0.972c-0.108,-0.324 -0.099,-0.711 0.027,-1.161c0.126,-0.45 0.396,-0.999 0.81,-1.647c0.414,-0.648 1.017,-1.458 1.809,-2.43c0.54,-0.648 0.99,-1.197 1.35,-1.647c0.36,-0.45 0.657,-0.864 0.891,-1.242c0.234,-0.378 0.423,-0.72 0.567,-1.026c0.144,-0.306 0.27,-0.657 0.378,-1.053c0.36,-1.116 0.648,-2.106 0.864,-2.97c0.216,-0.864 0.378,-1.728 0.486,-2.592c0.108,-0.864 0.162,-1.764 0.162,-2.7c0,-0.936 -0.018,-2.016 -0.054,-3.24l6.804,-1.62c-0.432,1.476 -0.801,2.781 -1.107,3.915c-0.306,1.134 -0.621,2.349 -0.945,3.645c1.08,-1.404 2.079,-2.574 2.997,-3.51c0.918,-0.936 1.764,-1.683 2.538,-2.241c0.774,-0.558 1.494,-0.963 2.16,-1.215c0.666,-0.252 1.287,-0.378 1.863,-0.378c0.972,0 1.908,0.135 2.808,0.405c0.9,0.27 1.683,0.621 2.349,1.053c0.666,0.432 1.206,0.918 1.62,1.458c0.414,0.54 0.621,1.062 0.621,1.566Z" style="fill:#3b3c3d;fill-rule:nonzero;"/><path d="M541.59,118.35c0,1.692 -0.369,3.33 -1.107,4.914c-0.738,1.584 -1.692,3.069 -2.862,4.455c-1.17,1.386 -2.484,2.664 -3.942,3.834c-1.458,1.17 -2.907,2.178 -4.347,3.024c-1.44,0.846 -2.808,1.503 -4.104,1.971c-1.296,0.468 -2.358,0.702 -3.186,0.702c-0.72,0 -1.647,-0.297 -2.781,-0.891c-1.134,-0.594 -2.223,-1.359 -3.267,-2.295c-1.044,-0.936 -1.944,-1.962 -2.7,-3.078c-0.756,-1.116 -1.134,-2.196 -1.134,-3.24c-0,-1.62 0.351,-3.294 1.053,-5.022c0.702,-1.728 1.692,-3.384 2.97,-4.968c1.278,-1.584 2.781,-3.033 4.509,-4.347c1.728,-1.314 3.618,-2.385 5.67,-3.213l4.266,1.674l7.02,-1.404c0.324,-0 0.711,0.189 1.161,0.567c0.45,0.378 0.882,0.909 1.296,1.593c0.414,0.684 0.765,1.512 1.053,2.484c0.288,0.972 0.432,2.052 0.432,3.24Zm-7.236,1.89c0,-0.648 -0.036,-1.242 -0.108,-1.782c-0.072,-0.54 -0.198,-1.08 -0.378,-1.62c-0.18,-0.54 -0.423,-1.116 -0.729,-1.728c-0.306,-0.612 -0.711,-1.314 -1.215,-2.106l-1.62,0.216c-2.16,1.08 -3.96,2.214 -5.4,3.402c-1.44,1.188 -2.61,2.475 -3.51,3.861c-0.9,1.386 -1.539,2.88 -1.917,4.482c-0.378,1.602 -0.567,3.357 -0.567,5.265c-0,0.252 0.036,0.495 0.108,0.729c0.072,0.234 0.234,0.513 0.486,0.837c0.252,0.324 0.594,0.702 1.026,1.134c0.432,0.432 1.008,0.972 1.728,1.62c1.512,-0.972 2.997,-1.998 4.455,-3.078c1.458,-1.08 2.754,-2.223 3.888,-3.429c1.134,-1.206 2.043,-2.457 2.727,-3.753c0.684,-1.296 1.026,-2.646 1.026,-4.05Z" style="fill:#3b3c3d;fill-rule:nonzero;"/><path d="M590.118,111.222c-0,0.612 -0.252,1.872 -0.756,3.78c-0.324,1.224 -0.747,2.637 -1.269,4.239c-0.522,1.602 -1.116,3.33 -1.782,5.184c-0.666,1.854 -1.422,3.789 -2.268,5.805c-0.846,2.016 -1.755,4.032 -2.727,6.048l-3.672,1.026c-2.52,-3.06 -4.581,-6.462 -6.183,-10.206c-1.602,-3.744 -2.619,-7.416 -3.051,-11.016c-0.468,2.268 -1.008,4.374 -1.62,6.318c-0.612,1.944 -1.287,3.78 -2.025,5.508c-0.738,1.728 -1.548,3.366 -2.43,4.914c-0.882,1.548 -1.827,3.06 -2.835,4.536l-5.13,-1.836c3.492,-3.816 6.327,-7.695 8.505,-11.637c2.178,-3.942 3.411,-8.091 3.699,-12.447l6.966,-1.62c-0.18,1.836 -0.108,3.798 0.216,5.886c0.324,2.088 0.819,4.122 1.485,6.102c0.666,1.98 1.449,3.843 2.349,5.589c0.9,1.746 1.836,3.195 2.808,4.347c1.692,-3.492 2.808,-6.498 3.348,-9.018c0.108,-0.576 0.135,-1.071 0.081,-1.485c-0.054,-0.414 -0.207,-0.945 -0.459,-1.593c-0.864,-2.268 -1.035,-4.176 -0.513,-5.724c0.522,-1.548 1.971,-2.736 4.347,-3.564c1.08,-0.396 1.836,-0.513 2.268,-0.351c0.432,0.162 0.648,0.567 0.648,1.215Z" style="fill:#3b3c3d;fill-rule:nonzero;"/><path d="M632.058,114.786c-2.592,-0.288 -4.932,-0.459 -7.02,-0.513c-2.088,-0.054 -3.942,-0.045 -5.562,0.027c-0.936,1.512 -1.773,2.97 -2.511,4.374c-0.738,1.404 -1.467,2.826 -2.187,4.266c0.468,-0.324 0.855,-0.594 1.161,-0.81c0.306,-0.216 0.621,-0.468 0.945,-0.756c2.484,-0.18 4.608,-0.306 6.372,-0.378c1.764,-0.072 2.916,-0.108 3.456,-0.108l2.754,0l-3.078,4.158c-2.268,-0.324 -4.365,-0.513 -6.291,-0.567c-1.926,-0.054 -3.915,0.045 -5.967,0.297c-0.432,0.972 -0.801,1.872 -1.107,2.7c-0.306,0.828 -0.621,1.746 -0.945,2.754l-3.78,2.538c3.888,-0.54 7.434,-0.837 10.638,-0.891c3.204,-0.054 6.174,0.063 8.91,0.351l-2.214,4.59c-3.276,-0.504 -6.777,-0.747 -10.503,-0.729c-3.726,0.018 -7.281,0.279 -10.665,0.783c0.396,-0.828 0.729,-1.53 0.999,-2.106c0.27,-0.576 0.486,-1.071 0.648,-1.485c0.162,-0.414 0.288,-0.774 0.378,-1.08c0.09,-0.306 0.171,-0.585 0.243,-0.837c0.684,-2.844 1.422,-5.436 2.214,-7.776c0.792,-2.34 1.674,-4.482 2.646,-6.426c0.792,-0.36 1.566,-0.72 2.322,-1.08c0.756,-0.36 1.764,-0.864 3.024,-1.512c-0.72,0.036 -1.683,0.126 -2.889,0.27c-1.206,0.144 -2.583,0.324 -4.131,0.54l2.646,-3.834c2.664,-0.396 5.058,-0.693 7.182,-0.891c2.124,-0.198 4.059,-0.333 5.805,-0.405c1.746,-0.072 3.348,-0.09 4.806,-0.054c1.458,0.036 2.835,0.108 4.131,0.216l-2.43,4.374Z" style="fill:#3b3c3d;fill-rule:nonzero;"/><path d="M166.937,75.781c-0,-0 17.766,-51.127 42.441,-50.733c24.675,0.395 44.021,71.46 44.021,71.46l-7.699,0.197c-0,0 -20.332,-66.524 -37.112,-66.524c-16.779,-0 -32.768,45.6 -32.768,45.6l-8.883,-0Z" style="fill:#7fb4c8;fill-rule:nonzero;"/><path d="M195.56,6.295c-0,-0 16.976,-3.75 20.332,2.961c3.356,6.712 -8.291,17.964 -8.291,17.964c-0,0 2.764,-10.462 0.79,-14.805c-1.974,-4.343 -12.831,-6.12 -12.831,-6.12Z" style="fill:#7fb4c8;fill-rule:nonzero;"/><path d="M101.202,75.781c0,-0 17.766,-51.127 42.441,-50.733c24.675,0.395 44.021,71.46 44.021,71.46l-7.699,0.197c-0,0 -20.332,-66.524 -37.111,-66.524c-16.78,-0 -32.769,45.6 -32.769,45.6l-8.883,-0Z" style="fill:#7fb4c8;fill-rule:nonzero;"/><path d="M129.825,6.295c-0,-0 16.977,-3.75 20.332,2.961c3.356,6.712 -8.291,17.964 -8.291,17.964c-0,0 2.764,-10.462 0.79,-14.805c-1.974,-4.343 -12.831,-6.12 -12.831,-6.12Z" style="fill:#7fb4c8;fill-rule:nonzero;"/><path d="M35.467,75.781c-0,-0 17.766,-51.127 42.441,-50.733c24.675,0.395 44.021,71.46 44.021,71.46l-7.699,0.197c0,0 -20.332,-66.524 -37.111,-66.524c-16.78,-0 -32.769,45.6 -32.769,45.6l-8.883,-0Z" style="fill:#7fb4c8;fill-rule:nonzero;"/><path d="M64.09,6.295c-0,-0 16.977,-3.75 20.332,2.961c3.356,6.712 -8.29,17.964 -8.29,17.964c0,0 2.763,-10.462 0.789,-14.805c-1.974,-4.343 -12.831,-6.12 -12.831,-6.12Z" style="fill:#7fb4c8;fill-rule:nonzero;"/><rect x="196.152" y="76.187" width="90.805" height="60.394" style="fill:#fff;fill-rule:nonzero;"/><rect x="196.152" y="76.187" width="90.805" height="60.394" style="fill:none;stroke:#000;stroke-width:1.5px;"/><path d="M255.16,92.779c7.514,7.514 7.514,19.696 0,27.21c-7.514,7.514 -19.697,7.514 -27.211,-0c-7.514,-7.514 -7.514,-19.696 0,-27.21c7.514,-7.514 19.697,-7.514 27.211,-0Z" style="fill:#e43e3b;fill-rule:nonzero;"/><rect x="0.75" y="105.786" width="90.804" height="30.795" style="fill:#7fb4c8;fill-rule:nonzero;"/><rect x="0.75" y="76.187" width="90.804" height="30.795" style="fill:#fff;fill-rule:nonzero;"/><rect x="0.921" y="76.187" width="90.805" height="60.394" style="fill:none;stroke:#000;stroke-width:1.5px;"/></g></svg>