<?xml version="1.0" encoding="UTF-8" standalone="no"?><!DOCTYPE svg PUBLIC "-//W3C//DTD SVG 1.1//EN" "http://www.w3.org/Graphics/SVG/1.1/DTD/svg11.dtd"><svg width="100%" height="100%" viewBox="0 0 289 156" version="1.1" xmlns="http://www.w3.org/2000/svg" xmlns:xlink="http://www.w3.org/1999/xlink" xml:space="preserve" xmlns:serif="http://www.serif.com/" style="fill-rule:evenodd;clip-rule:evenodd;stroke-linecap:round;stroke-linejoin:round;stroke-miterlimit:2;"><g><path d="M166.937,75.781c0,0 17.766,-51.127 42.441,-50.733c24.675,0.395 44.021,71.46 44.021,71.46l-7.699,0.197c0,0 -20.332,-66.524 -37.112,-66.524c-16.779,0 -32.768,45.6 -32.768,45.6l-8.883,0Z" style="fill:#7fb4c8;fill-rule:nonzero;"/><path d="M195.56,6.295c0,0 16.976,-3.75 20.332,2.961c3.356,6.712 -8.291,17.964 -8.291,17.964c0,0 2.764,-10.462 0.79,-14.805c-1.974,-4.343 -12.831,-6.12 -12.831,-6.12Z" style="fill:#7fb4c8;fill-rule:nonzero;"/><path d="M101.202,75.781c0,0 17.766,-51.127 42.441,-50.733c24.675,0.395 44.021,71.46 44.021,71.46l-7.699,0.197c0,0 -20.332,-66.524 -37.111,-66.524c-16.78,0 -32.769,45.6 -32.769,45.6l-8.883,0Z" style="fill:#7fb4c8;fill-rule:nonzero;"/><path d="M129.825,6.295c0,0 16.977,-3.75 20.332,2.961c3.356,6.712 -8.291,17.964 -8.291,17.964c0,0 2.764,-10.462 0.79,-14.805c-1.974,-4.343 -12.831,-6.12 -12.831,-6.12Z" style="fill:#7fb4c8;fill-rule:nonzero;"/><path d="M35.467,75.781c0,0 17.766,-51.127 42.441,-50.733c24.675,0.395 44.021,71.46 44.021,71.46l-7.699,0.197c0,0 -20.332,-66.524 -37.111,-66.524c-16.78,0 -32.769,45.6 -32.769,45.6l-8.883,0Z" style="fill:#7fb4c8;fill-rule:nonzero;"/><path d="M64.09,6.295c0,0 16.977,-3.75 20.332,2.961c3.356,6.712 -8.29,17.964 -8.29,17.964c0,0 2.763,-10.462 0.789,-14.805c-1.974,-4.343 -12.831,-6.12 -12.831,-6.12Z" style="fill:#7fb4c8;fill-rule:nonzero;"/><rect x="196.152" y="76.187" width="90.805" height="60.394" style="fill:#fff;"/><rect x="196.152" y="76.187" width="90.805" height="60.394" style="fill:none;stroke:#000;stroke-width:1.5px;"/><path d="M255.16,92.779c7.514,7.514 7.514,19.696 0,27.21c-7.514,7.514 -19.697,7.514 -27.211,0c-7.514,-7.514 -7.514,-19.696 0,-27.21c7.514,-7.514 19.697,-7.514 27.211,0Z" style="fill:#e43e3b;fill-rule:nonzero;"/><rect x="0.75" y="105.786" width="90.804" height="30.795" style="fill:#7fb4c8;"/><rect x="0.75" y="76.187" width="90.804" height="30.795" style="fill:#fff;"/><rect x="0.921" y="76.187" width="90.805" height="60.394" style="fill:none;stroke:#000;stroke-width:1.5px;"/></g></svg>